<?xml version="1.0" encoding="utf-8"?>
<!-- Generator: Adobe Illustrator 26.0.1, SVG Export Plug-In . SVG Version: 6.00 Build 0)  -->
<svg version="1.1" id="Шар_1" xmlns="http://www.w3.org/2000/svg" xmlns:xlink="http://www.w3.org/1999/xlink" x="0px" y="0px"
	 viewBox="0 0 512 512" style="enable-background:new 0 0 512 512;" xml:space="preserve">
<style type="text/css">
	.st0{fill:#FFFFFF;}
</style>
<g id="_1">
	<path class="st0" d="M354.9,322h-55.8c-8.3,0-15-6.7-15-15s6.7-15,15-15h55.8c38.7-0.5,69.8-32.2,69.3-71
		c-0.5-38.1-31.2-68.8-69.3-69.3c-1.9,0-3.9,0.1-6.1,0.3c-5.8,0.5-11.3-2.4-14.2-7.4c-27.2-46.9-87.3-62.9-134.2-35.7
		c-25.2,14.6-42.6,39.6-47.5,68.3c-1.3,7.4-7.8,12.8-15.4,12.5h-1.1c-28.3,0-51.2,22.9-51.2,51.2s22.9,51.2,51.2,51.2h74.7
		c8.3,0,15,6.7,15,15s-6.7,15-15,15h-74.7c-44.8,0-81.1-36.4-81.1-81.3c0-40.7,30.2-75.1,70.5-80.4C144.4,92,214.8,51.7,283.1,70.2
		c29.5,8,55.2,26.3,72.4,51.6c55.3,1.3,99.1,47.1,97.8,102.4C452.1,277.9,408.7,321.1,354.9,322z"/>
	<path class="st0" d="M255.1,425c-4,0-7.8-1.6-10.6-4.4l-48.2-48.2c-5.9-5.9-5.9-15.4,0-21.2s15.4-5.9,21.2,0l37.6,37.6l37.6-37.6
		c5.9-5.9,15.4-5.9,21.2,0s5.9,15.4,0,21.2l-48.2,48.2C262.9,423.4,259.1,425,255.1,425z"/>
	<path class="st0" d="M255.1,425c-8.3,0-15-6.7-15-15V245.2c0-8.3,6.7-15,15-15s15,6.7,15,15l0,0V410
		C270.1,418.3,263.4,425,255.1,425z"/>
</g>
</svg>
