<?xml version="1.0" encoding="utf-8"?>
<!-- Generator: Adobe Illustrator 26.0.1, SVG Export Plug-In . SVG Version: 6.00 Build 0)  -->
<svg version="1.1" id="_015_HEALTH" xmlns="http://www.w3.org/2000/svg" xmlns:xlink="http://www.w3.org/1999/xlink" x="0px"
	 y="0px" viewBox="0 0 24 24" style="enable-background:new 0 0 24 24;" xml:space="preserve">
<style type="text/css">
	.st0{fill:#FFFFFF;}
</style>
<path class="st0" d="M12,20.5c-4.3,0-8.2-3-10.5-8.1c-0.1-0.3-0.1-0.6,0-0.8C3.8,6.5,7.7,3.5,12,3.5s8.2,3,10.5,8.1
	c0.1,0.3,0.1,0.6,0,0.8c-0.4,0.9-0.9,1.7-1.4,2.5c-0.3,0.5-0.9,0.6-1.4,0.3s-0.6-0.9-0.3-1.4c0,0,0,0,0,0c0.4-0.6,0.7-1.2,1-1.8
	c-2-4.1-5.1-6.5-8.5-6.5S5.5,7.9,3.5,12c2,4.1,5.1,6.5,8.5,6.5c1.9,0,3.6-0.7,5-1.9c0.4-0.3,1.1-0.3,1.4,0.1
	c0.3,0.4,0.3,1.1-0.1,1.4l0,0C16.5,19.6,14.3,20.5,12,20.5z"/>
<path class="st0" d="M12,16c-2.2,0-4-1.8-4-4c0-0.3,0-0.5,0.1-0.7c0.1-0.5,0.6-0.9,1.2-0.8s0.9,0.6,0.8,1.2
	c-0.2,1.1,0.5,2.1,1.6,2.3s2.1-0.5,2.3-1.6c0-0.1,0-0.3,0-0.4c0-1.1-0.9-2-2.1-2c-0.5,0-1-0.4-1-0.9c0-0.5,0.3-1,0.9-1c0,0,0,0,0,0
	L12,8c2.2,0,4,1.8,4,4S14.2,16,12,16z"/>
</svg>
